<?xml version="1.0" encoding="UTF-8"?>
<svg width="175px" height="48px" viewBox="0 0 175 48" version="1.1" xmlns="http://www.w3.org/2000/svg" xmlns:xlink="http://www.w3.org/1999/xlink" xmlns:sketch="http://www.bohemiancoding.com/sketch/ns">
    <!-- Generator: Sketch 3.1.1 (8761) - http://www.bohemiancoding.com/sketch -->
    <title>Blog</title>
    <desc>Created with Sketch.</desc>
    <defs></defs>
    <g id="Page-1" stroke="none" stroke-width="1" fill="none" fill-rule="evenodd" sketch:type="MSPage">
        <g id="Blog" sketch:type="MSLayerGroup" transform="translate(1.000000, 1.000000)">
            <g id="Blog-Index" sketch:type="MSShapeGroup">
                <g id="Header">
                    <g id="Top">
                        <g id="Logo-small">
                            <g id="Logotipo" transform="translate(-0.449845, -0.172263)">
                                <path d="M26.2280406,5.61372888 L22.6577651,9.06545998 C20.2316682,6.46143632 17.5010591,5.15893334 14.4678734,5.15893334 C11.905004,5.15893334 9.7495486,6.04920624 7.99666854,7.82713262 C6.23991755,9.605059 5.36541298,11.7942332 5.36541298,14.3969471 C5.36541298,16.2135099 5.75153691,17.823139 6.53055887,19.2297636 C7.30700023,20.6363882 8.40505024,21.7411255 9.82567663,22.5429933 C11.2437224,23.3445335 12.8227338,23.7466134 14.557227,23.7466134 C16.0378526,23.7466134 17.3926734,23.4666637 18.6203991,22.9038174 C19.8429636,22.3426082 21.18972,21.3223469 22.6577651,19.8423787 L26.1154614,23.5036629 C24.1371004,25.4642933 22.26648,26.8270427 20.5068258,27.5837256 C18.7449136,28.3417182 16.7352628,28.7208781 14.4743249,28.7208781 C10.308896,28.7208781 6.89700565,27.3784291 4.24413747,24.6997522 C1.59030157,22.020093 0.263867481,18.5811315 0.263867481,14.3877792 C0.263867481,11.6760322 0.8686982,9.26584505 2.0748113,7.16049208 C3.28479531,5.04990029 5.01444987,3.35383056 7.26764591,2.07195546 C9.52116452,0.788443227 11.9479067,0.148651672 14.5475497,0.148651672 C16.7588108,0.148651672 18.8862021,0.621455667 20.933917,1.57099278 C22.9803415,2.51496363 24.7448343,3.86527089 26.2280406,5.61372888" id="Fill-1" fill="#000000"></path>
                                <path d="M38.2178821,0.831008684 L43.3920073,0.831008684 L53.7015485,28.0398308 L48.3993605,28.0398308 L46.3032592,22.4336328 L35.3653392,22.4336328 L33.185368,28.0398308 L27.8841477,28.0398308 L38.2178821,0.831008684 L38.2178821,0.831008684 Z M40.8365572,8.04683586 L37.2414434,17.3863519 L44.4119938,17.3863519 L40.8365572,8.04683586 L40.8365572,8.04683586 Z" id="Fill-2" fill="#000000"></path>
                                <path d="M57.7192374,0.831008684 L71.020352,0.831008684 L71.020352,5.88352838 L62.7843317,5.88352838 L62.7843317,10.8178471 L71.020352,10.8178471 L71.020352,15.7947312 L62.7843317,15.7947312 L62.7843317,28.0398308 L57.7192374,28.0398308 L57.7192374,0.831008684" id="Fill-3" fill="#000000"></path>
                                <path d="M75.6277104,0.831008684 L88.9314056,0.831008684 L88.9314056,5.88352838 L80.6966757,5.88352838 L80.6966757,10.8178471 L88.9314056,10.8178471 L88.9314056,15.7947312 L80.6966757,15.7947312 L80.6966757,28.0398308 L75.6277104,28.0398308 L75.6277104,0.831008684" id="Fill-4" fill="#000000"></path>
                                <path d="M93.4871519,0.831008684 L108.117604,0.831008684 L108.117604,5.90022714 L98.5512785,5.90022714 L98.5512785,10.8178471 L108.117604,10.8178471 L108.117604,15.7947312 L98.5512785,15.7947312 L98.5512785,22.9526039 L108.117604,22.9526039 L108.117604,28.0398308 L93.4871519,28.0398308 L93.4871519,0.831008684" id="Fill-5" fill="#000000"></path>
                                <path d="M113.157215,0.831008684 L118.219083,0.831008684 L118.219083,28.0398308 L113.157215,28.0398308 L113.157215,0.831008684 L113.157215,0.831008684 Z" id="Fill-6" fill="#000000"></path>
                                <path d="M123.329016,0.831008684 L128.22379,0.831008684 L139.692348,18.7376414 L139.692348,0.831008684 L144.794538,0.831008684 L144.794538,28.0398308 L139.886539,28.0398308 L128.430884,10.1911526 L128.430884,28.0398308 L123.329016,28.0398308 L123.329016,0.831008684" id="Fill-7" fill="#000000"></path>
                                <path d="M158.445003,0.831008684 L163.617516,0.831008684 L173.927379,28.0398308 L168.623256,28.0398308 L166.527477,22.4336328 L155.591815,22.4336328 L153.412812,28.0398308 L148.109333,28.0398308 L158.445003,0.831008684 L158.445003,0.831008684 Z M161.063033,8.04683586 L157.467919,17.3863519 L164.63976,17.3863519 L161.063033,8.04683586 L161.063033,8.04683586 Z" id="Fill-8" fill="#000000"></path>
                                <path d="M2.45512885,35.9059272 L4.33316855,35.9059272 L4.33316855,46.8445947 L2.45512885,46.8445947 L2.45512885,35.9059272 L2.45512885,35.9059272 Z" id="Fill-9" fill="#000000"></path>
                                <path d="M16.5572006,43.5238342 C16.2801075,44.1957136 15.8872094,44.7768958 15.3794742,45.2663986 C14.871739,45.7559013 14.265618,46.1412824 13.562724,46.4225418 C12.8598301,46.7038013 12.0869371,46.8445947 11.2456579,46.8445947 L7.22796901,46.8445947 L7.22796901,35.9055998 L11.2456579,35.9055998 C12.0869371,35.9055998 12.8598301,36.0437738 13.562724,36.3201219 C14.265618,36.5961425 14.871739,36.9792316 15.3794742,37.4684069 C15.8872094,37.9579097 16.2801075,38.5367999 16.5572006,39.2027855 C16.8346163,39.8694261 16.9733241,40.5891097 16.9733241,41.3598719 C16.9733241,42.1306341 16.8346163,42.8519549 16.5572006,43.5238342 M14.7162572,39.8920185 C14.5365821,39.437223 14.2840048,39.0423465 13.9604607,38.7077165 C13.6359489,38.3730866 13.2427283,38.1114727 12.779186,37.9225476 C12.3159663,37.7346047 11.8017796,37.6399784 11.2359806,37.6399784 L9.10600872,37.6399784 L9.10600872,45.1102161 L11.2359806,45.1102161 C11.8017796,45.1102161 12.3159663,45.0185366 12.779186,44.8355052 C13.2427283,44.6521463 13.6359489,44.3960987 13.9604607,44.0663801 C14.2840048,43.736989 14.5365821,43.3444045 14.7162572,42.8896089 C14.8968999,42.434486 14.9868988,41.9345056 14.9868988,41.39065 C14.9868988,40.846467 14.8968999,40.3474689 14.7162572,39.8920185" id="Fill-10" fill="#000000"></path>
                                <path d="M27.2415755,37.6399784 L21.1452045,37.6399784 L21.1452045,40.4532277 L26.5486815,40.4532277 L26.5486815,42.1876063 L21.1452045,42.1876063 L21.1452045,45.1102161 L27.3180262,45.1102161 L27.3180262,46.8445947 L19.2668422,46.8445947 L19.2668422,35.9055998 L27.2415755,35.9055998 L27.2415755,37.6399784" id="Fill-11" fill="#000000"></path>
                                <path d="M39.8965696,46.8445947 L37.8949832,46.8445947 L36.8020944,44.2032444 L31.7063553,44.2032444 L30.5976602,46.8445947 L28.6580084,46.8445947 L33.3995587,35.8273448 L35.1550194,35.8273448 L39.8965696,46.8445947 L39.8965696,46.8445947 Z M34.2463217,38.1248972 L32.3992493,42.5002987 L36.1092003,42.5002987 L34.2463217,38.1248972 L34.2463217,38.1248972 Z" id="Fill-12" fill="#000000"></path>
                                <path d="M43.268138,39.3281899 C43.3403951,39.4843724 43.4713611,39.6307321 43.6616812,39.7656319 C43.8523238,39.9011865 44.1142558,40.0262634 44.4490901,40.1408627 C44.7829567,40.2557895 45.2077898,40.3753002 45.7222991,40.5003771 C46.2877755,40.6464094 46.7897044,40.8075033 47.2271179,40.984641 C47.6642089,41.1621063 48.0267848,41.3778804 48.3154907,41.6329457 C48.6032288,41.8886659 48.8222582,42.1853144 48.9709659,42.5238734 C49.1203187,42.8624325 49.1951564,43.2612381 49.1951564,43.7189805 C49.1951564,44.2399162 49.1006416,44.7038797 48.9129021,45.1105435 C48.7241949,45.516225 48.4622629,45.860023 48.1261383,46.1412824 C47.7903363,46.4225418 47.3864707,46.6366788 46.9155092,46.7823837 C46.4442251,46.9280885 45.9258448,47.0007772 45.3613361,47.0007772 C44.530702,47.0007772 43.7352286,46.8576918 42.9752386,46.5711935 C42.2158938,46.2846953 41.5126773,45.8446339 40.8659117,45.2503547 L42.005574,43.8758178 C42.5291155,44.3338876 43.0574956,44.6858712 43.5913595,44.9304589 C44.1249009,45.175374 44.7306993,45.2971767 45.4077871,45.2971767 C45.9929407,45.2971767 46.4574507,45.1727546 46.8009945,44.9229281 C47.144861,44.6724467 47.3167942,44.3338876 47.3167942,43.9065959 C47.3167942,43.7088303 47.2832462,43.5316925 47.2167955,43.37551 C47.1496996,43.2193275 47.0264754,43.0762421 46.8461552,42.9459263 C46.6664802,42.8152831 46.4190641,42.6934804 46.1048747,42.5782263 C45.7910079,42.4639544 45.3823036,42.3437888 44.8781167,42.2193667 C44.3019953,42.0838121 43.7900666,41.9328685 43.3426531,41.7658809 C42.8949171,41.5995482 42.5194382,41.39065 42.2158938,41.1408235 C41.9120269,40.890997 41.680417,40.5891097 41.5210643,40.2345067 C41.361389,39.8805586 41.2817126,39.4483555 41.2817126,38.93757 C41.2817126,38.4585449 41.3736469,38.0230675 41.5562251,37.6324476 C41.7397711,37.2418277 41.9917032,36.905888 42.3126667,36.6246286 C42.6333077,36.3433691 43.0187864,36.127595 43.4694257,35.9759965 C43.9200649,35.8257077 44.4123164,35.7497447 44.9465029,35.7497447 C45.7361699,35.7497447 46.4474508,35.866636 47.0784102,36.1010735 C47.7096922,36.3355109 48.302265,36.6766894 48.8564512,37.1249364 L47.8403356,38.5780556 C47.3477615,38.2136298 46.860026,37.9349898 46.3777743,37.7421355 C45.8955226,37.5496087 45.4077871,37.4526904 44.915213,37.4526904 C44.3610268,37.4526904 43.9300647,37.5803868 43.6220043,37.836107 C43.3142664,38.0911723 43.1600749,38.4012453 43.1600749,38.7656711 C43.1600749,38.984392 43.1958809,39.1720074 43.268138,39.3281899" id="Fill-13" fill="#000000"></path>
                                <path d="M66.6378292,35.9059272 L68.5158689,35.9059272 L68.5158689,46.8445947 L66.9333092,46.8445947 L61.0033875,39.0623195 L61.0033875,46.8445947 L59.1250252,46.8445947 L59.1250252,35.9059272 L60.8759699,35.9059272 L66.6378292,43.4694814 L66.6378292,35.9059272" id="Fill-14" fill="#000000"></path>
                                <path d="M79.2625011,37.6399784 L73.1661301,37.6399784 L73.1661301,40.4532277 L78.569607,40.4532277 L78.569607,42.1876063 L73.1661301,42.1876063 L73.1661301,45.1102161 L79.3389517,45.1102161 L79.3389517,46.8445947 L71.2877678,46.8445947 L71.2877678,35.9055998 L79.2625011,35.9055998 L79.2625011,37.6399784" id="Fill-15" fill="#000000"></path>
                                <path d="M89.253982,35.9059272 L91.3016969,35.9059272 L86.8214335,46.9231771 L85.1585522,46.9231771 L80.6786114,35.9059272 L82.7727773,35.9059272 L86.0211215,44.3129323 L89.253982,35.9059272" id="Fill-16" fill="#000000"></path>
                                <path d="M101.123503,37.6399784 L95.0271315,37.6399784 L95.0271315,40.4532277 L100.430609,40.4532277 L100.430609,42.1876063 L95.0271315,42.1876063 L95.0271315,45.1102161 L101.199953,45.1102161 L101.199953,46.8445947 L93.1487693,46.8445947 L93.1487693,35.9055998 L101.123503,35.9055998 L101.123503,37.6399784" id="Fill-17" fill="#000000"></path>
                                <path d="M110.375961,46.8445947 L107.719867,43.0317121 L105.341834,43.0317121 L105.341834,46.8445947 L103.463794,46.8445947 L103.463794,35.9059272 L108.266634,35.9059272 C108.882432,35.9059272 109.439199,35.9868016 109.937257,36.1478955 C110.43467,36.3099716 110.855632,36.5385154 111.199821,36.8358187 C111.543365,37.1327947 111.807878,37.4975479 111.992714,37.929751 C112.17755,38.3622815 112.269807,38.843926 112.269807,39.3750119 C112.269807,39.8337366 112.205292,40.242365 112.076906,40.6018794 C111.948521,40.9610663 111.771749,41.2789976 111.545946,41.5550182 C111.320142,41.8313662 111.050468,42.0658036 110.737892,42.2583305 C110.42467,42.4511847 110.078546,42.599509 109.698873,42.7036306 L112.608512,46.8445947 L110.375961,46.8445947 L110.375961,46.8445947 Z M109.758227,38.1032871 C109.367265,37.7948512 108.815982,37.6403059 108.105991,37.6403059 L105.341834,37.6403059 L105.341834,41.328439 L108.121797,41.328439 C108.800821,41.328439 109.341136,41.1614514 109.743066,40.8261666 C110.144351,40.4915366 110.344994,40.0419799 110.344994,39.4765142 C110.344994,38.8694653 110.14919,38.4123778 109.758227,38.1032871 L109.758227,38.1032871 L109.758227,38.1032871 Z" id="Fill-18" fill="#000000"></path>
                                <path d="M123.985136,39.3281899 C124.057393,39.4843724 124.188359,39.6307321 124.378679,39.7656319 C124.569322,39.9011865 124.831254,40.0262634 125.166088,40.1408627 C125.499955,40.2557895 125.924788,40.3753002 126.439297,40.5003771 C127.004774,40.6464094 127.506702,40.8075033 127.944116,40.984641 C128.381207,41.1621063 128.743783,41.3778804 129.032489,41.6329457 C129.320227,41.8886659 129.539256,42.1853144 129.687964,42.5238734 C129.837317,42.8624325 129.912154,43.2612381 129.912154,43.7189805 C129.912154,44.2399162 129.81764,44.7038797 129.6299,45.1105435 C129.441193,45.516225 129.179261,45.860023 128.843136,46.1412824 C128.507334,46.4225418 128.103469,46.6366788 127.632507,46.7823837 C127.161223,46.9280885 126.642843,47.0007772 126.078334,47.0007772 C125.2477,47.0007772 124.452227,46.8576918 123.692237,46.5711935 C122.932892,46.2846953 122.229675,45.8446339 121.58291,45.2503547 L122.722572,43.8758178 C123.246114,44.3338876 123.774494,44.6858712 124.308358,44.9304589 C124.841899,45.175374 125.447697,45.2971767 126.124785,45.2971767 C126.709939,45.2971767 127.174449,45.1727546 127.517993,44.9229281 C127.861859,44.6724467 128.033792,44.3338876 128.033792,43.9065959 C128.033792,43.7088303 128.000244,43.5316925 127.933794,43.37551 C127.866698,43.2193275 127.743473,43.0762421 127.563153,42.9459263 C127.383478,42.8152831 127.136062,42.6934804 126.821873,42.5782263 C126.508006,42.4639544 126.099302,42.3437888 125.595115,42.2193667 C125.019316,42.0838121 124.507065,41.9328685 124.059974,41.7658809 C123.611915,41.5995482 123.236436,41.39065 122.932892,41.1408235 C122.629025,40.890997 122.397415,40.5891097 122.238062,40.2345067 C122.078387,39.8805586 121.998711,39.4483555 121.998711,38.93757 C121.998711,38.4585449 122.090645,38.0230675 122.273223,37.6324476 C122.456769,37.2418277 122.708701,36.905888 123.029665,36.6246286 C123.350306,36.3433691 123.735784,36.127595 124.186424,35.9759965 C124.637063,35.8257077 125.129314,35.7497447 125.663501,35.7497447 C126.453168,35.7497447 127.164449,35.866636 127.795408,36.1010735 C128.42669,36.3355109 129.019263,36.6766894 129.573449,37.1249364 L128.557334,38.5780556 C128.06476,38.2136298 127.577024,37.9349898 127.094772,37.7421355 C126.612521,37.5496087 126.124785,37.4526904 125.632211,37.4526904 C125.078025,37.4526904 124.647063,37.5803868 124.339002,37.836107 C124.031264,38.0911723 123.877073,38.4012453 123.877073,38.7656711 C123.877073,38.984392 123.912879,39.1720074 123.985136,39.3281899" id="Fill-19" fill="#000000"></path>
                                <path d="M132.145351,35.9059272 L134.02339,35.9059272 L134.02339,45.1105435 L139.689122,45.1105435 L139.689122,46.8445947 L132.145351,46.8445947 L132.145351,35.9059272" id="Fill-20" fill="#000000"></path>
                                <path d="M149.649636,37.6399784 L143.553265,37.6399784 L143.553265,40.4532277 L148.956742,40.4532277 L148.956742,42.1876063 L143.553265,42.1876063 L143.553265,45.1102161 L149.726086,45.1102161 L149.726086,46.8445947 L141.674902,46.8445947 L141.674902,35.9055998 L149.649636,35.9055998 L149.649636,37.6399784" id="Fill-21" fill="#000000"></path>
                                <path d="M159.964338,37.6399784 L153.867967,37.6399784 L153.867967,40.4532277 L159.271444,40.4532277 L159.271444,42.1876063 L153.867967,42.1876063 L153.867967,45.1102161 L160.040789,45.1102161 L160.040789,46.8445947 L151.989605,46.8445947 L151.989605,35.9055998 L159.964338,35.9055998 L159.964338,37.6399784" id="Fill-22" fill="#000000"></path>
                                <path d="M170.30904,41.2030346 C170.082591,41.6719095 169.774208,42.0625294 169.383246,42.3752218 C168.992283,42.6882416 168.534547,42.9252984 168.010038,43.0863923 C167.484884,43.2481411 166.924246,43.328688 166.32748,43.328688 L164.182669,43.328688 L164.182669,46.8445947 L162.30463,46.8445947 L162.30463,35.9059272 L166.553283,35.9059272 C167.179081,35.9059272 167.746816,35.9920404 168.254874,36.1632845 C168.762286,36.3355109 169.193894,36.582718 169.54776,36.905888 C169.902271,37.2290581 170.173558,37.6144392 170.364201,38.0620313 C170.553876,38.5106057 170.648713,39.0154975 170.648713,39.5780164 C170.648713,40.1925961 170.535489,40.7348146 170.30904,41.2030346 M168.091005,38.13472 C167.66843,37.8053289 167.101986,37.6399784 166.39135,37.6399784 L164.182669,37.6399784 L164.182669,41.5943094 L166.39135,41.5943094 C167.111986,41.5943094 167.681655,41.4138973 168.098747,41.0527458 C168.515515,40.6919217 168.724545,40.213224 168.724545,39.6173076 C168.724545,38.9581979 168.513257,38.4641112 168.091005,38.13472" id="Fill-23" fill="#000000"></path>
                                <path d="M170.970644,45.0421113 L172.693847,45.0421113 L172.693847,46.8445947 L170.970644,46.8445947 L170.970644,45.0421113 L170.970644,45.0421113 Z" id="Fill-24" fill="#FFFFFF"></path>
                            </g>
                        </g>
                    </g>
                </g>
            </g>
        </g>
    </g>
</svg>