<?xml version="1.0" encoding="utf-8"?>
<!-- Generator: Adobe Illustrator 21.0.2, SVG Export Plug-In . SVG Version: 6.00 Build 0)  -->
<svg version="1.1" id="Artwork" xmlns="http://www.w3.org/2000/svg" xmlns:xlink="http://www.w3.org/1999/xlink" x="0px" y="0px"
	 viewBox="0 0 1730 448" style="enable-background:new 0 0 1730 448;" xml:space="preserve">
<style type="text/css">
	.st0{fill:none;}
	.st1{opacity:0.54;}
	.st2{clip-path:url(#SVGID_2_);fill:none;}
	.st3{clip-path:url(#SVGID_2_);}
	.st4{fill:#FBBC05;}
	.st5{fill:#EA4335;}
	.st6{fill:#4285F4;}
	.st7{fill:#E0E0E0;}
	.st8{fill:#FFFFFF;}
	.st9{opacity:0.2;fill:#FFFFFF;enable-background:new    ;}
	.st10{fill:#1A237E;fill-opacity:0.2;}
	.st11{opacity:0.2;}
	.st12{fill:#BF360C;}
	.st13{fill:#3E2723;}
	.st14{fill:url(#SVGID_3_);}
	.st15{fill:none;stroke:#231F20;stroke-miterlimit:10;}
</style>
<symbol  id="logo_x5F_dark" viewBox="0 -136 416 136">
	<path d="M0.7-52.6C0.7-23.6,25-0.1,54-0.1c16,0,27.4-6.3,36-14.5L79.8-24.7C73.7-18.9,65.4-14.4,54-14.4c-21.1,0-37.6-17-37.6-38.1
		c0-21.1,16.5-38.1,37.6-38.1c13.7,0,21.5,5.5,26.5,10.5c4.1,4.1,6.8,10,7.8,18H54v14.3h48.3c0.5-2.6,0.8-5.6,0.8-9
		c0-10.8-2.9-24.1-12.4-33.5C81.4-99.9,69.6-105,54-105C25-105,0.7-81.5,0.7-52.6z"/>
	<path d="M142-37.5c-18.7,0-33.9-14.2-33.9-33.8c0-19.5,15.2-33.8,33.9-33.8c18.7,0,33.9,14.3,33.9,33.8
		C175.9-51.7,160.7-37.5,142-37.5z M142-91.7c-10.2,0-19.1,8.4-19.1,20.5c0,12.2,8.8,20.5,19.1,20.5c10.2,0,19.1-8.3,19.1-20.5
		C161.1-83.3,152.2-91.7,142-91.7z"/>
	<path d="M216-37.5c-18.7,0-33.9-14.2-33.9-33.8c0-19.5,15.2-33.8,33.9-33.8c18.7,0,33.9,14.3,33.9,33.8
		C249.9-51.7,234.7-37.5,216-37.5z M216-91.7c-10.2,0-19.1,8.4-19.1,20.5c0,12.2,8.8,20.5,19.1,20.5c10.2,0,19.1-8.3,19.1-20.5
		C235.1-83.3,226.2-91.7,216-91.7z"/>
	<path d="M306.8-39.5V-45h-0.5c-3.3,4-9.7,7.6-17.8,7.6c-16.9,0-32.4-14.8-32.4-33.9c0-18.9,15.5-33.7,32.4-33.7
		c8.1,0,14.5,3.6,17.8,7.7h0.5v-4.9c0-12.9-6.9-19.8-18-19.8c-9.1,0-14.7,6.5-17,12l-12.9-5.4c3.7-9,13.6-20,30-20
		c17.4,0,32.1,10.2,32.1,35.2v60.7H306.8z M289.8-91.7c-10.2,0-18.8,8.6-18.8,20.4c0,11.9,8.6,20.6,18.8,20.6c10.1,0,18-8.7,18-20.6
		C307.9-83.2,299.9-91.7,289.8-91.7z"/>
	<rect x="331.2" y="-103" width="14.8" height="99.3"/>
	<path d="M386.7-91.7c-7.6,0-12.9,3.5-16.4,10.2l45.2,18.7L414-59c-2.8,7.6-11.4,21.5-28.9,21.5c-17.4,0-31.9-13.7-31.9-33.8
		c0-18.9,14.3-33.8,33.5-33.8c15.5,0,24.4,9.5,28.2,15l-11.5,7.7C399.5-88,394.3-91.7,386.7-91.7z M385.6-50.5
		c5.9,0,10.9-2.9,12.5-7.2l-30.2-12.5C367.5-57.2,378-50.5,385.6-50.5z"/>
	<rect y="-136" class="st0" width="416" height="136"/>
</symbol>
<g>
	<g>
		<g>
			<g class="st1">
				<defs>
					<rect id="SVGID_1_" x="356" y="128" class="st1" width="1246" height="192"/>
				</defs>
				<clipPath id="SVGID_2_">
					<use xlink:href="#SVGID_1_"  style="overflow:visible;"/>
				</clipPath>
				<rect x="356" y="169" class="st2" width="1246" height="136"/>
				<g class="st3">
					<path d="M800.6,226.2c0-27.3,20.6-47.9,47.6-47.9c13.8,0,25.5,5.5,33.7,15l-8.2,7.9c-6.4-7.9-15-11.6-25.5-11.6
						c-19.3,0-35.6,14.1-35.6,36.6c0,22.5,16.3,36.6,35.6,36.6c11.5,0,21.2-5.4,28.2-13.3l8.2,8.2c-8.1,9.6-21,16.4-36.4,16.4
						C821.2,274,800.6,253.4,800.6,226.2z"/>
					<path d="M893.8,272v-91.7h11.8V272H893.8z"/>
					<path d="M978.9,240.6c0,19.1-13.4,33.4-32.3,33.4c-18.8,0-32.3-14.3-32.3-33.4c0-19.1,13.4-33.4,32.3-33.4
						C965.5,207.2,978.9,221.6,978.9,240.6z M967.2,240.6c0-14.3-10-22.7-20.5-22.7c-10.5,0-20.5,8.3-20.5,22.7
						c0,14.3,10,22.7,20.5,22.7C957.2,263.3,967.2,255,967.2,240.6z"/>
					<path d="M1032.2,272v-8.7h-0.5c-3.5,5.8-11.3,10.8-19.8,10.8c-16.1,0-23.9-10.9-23.9-26.4v-38.4h11.8v36.5
						c0,13.1,6.5,17.5,15.5,17.5c10.2,0,16.5-9.9,16.5-19.5v-34.6h11.8V272H1032.2z"/>
					<path d="M1052.9,240.6c0-19.2,14-33.4,29.8-33.4c10,0,17.8,5,21.4,10.8h0.5l-0.5-8.7v-28.9h11.8V272h-11.3v-8.7h-0.5
						c-3.6,5.8-11.4,10.8-21.4,10.8C1066.9,274,1052.9,259.8,1052.9,240.6z M1104.6,240.6c0-14.3-9.5-22.7-20-22.7
						c-10.5,0-20,8.6-20,22.7c0,14.1,9.5,22.7,20,22.7C1095.2,263.3,1104.6,255,1104.6,240.6z"/>
					<path d="M1148,272v-91.7h31.2c15.2,0,28.7,11.3,28.7,27.3c0,16-13.4,27.3-28.7,27.3h-19.5V272H1148z M1179.5,223.6
						c10.5,0,16.4-8.7,16.4-16c0-7.3-5.9-16-16.4-16h-19.7v32H1179.5z"/>
					<path d="M1216.2,272v-91.7h11.8V272H1216.2z"/>
					<path d="M1238.1,253.1c0-14.2,12.8-21.9,27.5-21.9c8.4,0,14.6,2.4,17,3.8v-1.8c0-9.5-7.6-15.2-16.4-15.2
						c-6.5,0-12.8,3.2-15,9.1l-10.8-4.6c2.2-5.8,9.7-15.2,25.5-15.2c15.4,0,27.9,9.2,27.9,26.9V272h-11.3v-8.7h-0.5
						c-3.5,5.2-9.9,10.8-20.6,10.8C1248.8,274,1238.1,266.1,1238.1,253.1z M1282.7,245c0,0-5-4.1-15-4.1c-12.4,0-17.3,6.7-17.3,12.4
						c0,6.7,6.9,10,13.1,10C1272.8,263.3,1282.7,255.2,1282.7,245z"/>
					<path d="M1311,252.9V220h-11v-10.8h11v-19.2h11.8v19.2h15.4V220h-15.4v32c0,7,2.9,10.2,8.4,10.2c2.2,0,3.7-0.3,5.4-1l4.1,10.1
						c-2.7,1.2-5.5,1.7-9.5,1.7C1318,273,1311,265.7,1311,252.9z"/>
					<path d="M1387.5,181.5l-4.1,10.1c-1.5-0.8-3.2-1-5.4-1c-5.9,0-10.5,3.5-10.5,10.8v7.9h16.4V220h-16.4v52h-11.8v-52H1344v-10.8
						h11.8V201c0-12.8,9.1-21.1,22.3-21.1C1382,179.8,1384.8,180.3,1387.5,181.5z"/>
					<path d="M1451.6,240.6c0,19.1-13.4,33.4-32.3,33.4s-32.3-14.3-32.3-33.4c0-19.1,13.4-33.4,32.3-33.4S1451.6,221.6,1451.6,240.6
						z M1439.9,240.6c0-14.3-10-22.7-20.5-22.7s-20.5,8.3-20.5,22.7c0,14.3,10,22.7,20.5,22.7S1439.9,255,1439.9,240.6z"/>
					<path d="M1461.1,272v-62.7h11.3v10.2h0.5c2.6-7.2,11.6-11.8,18.2-11.8c3.8,0,6.4,0.5,8.8,1.5l-4.5,11c-1.7-0.6-3.7-0.9-6.3-0.9
						c-8.1,0-16.3,6.8-16.3,18.3V272H1461.1z"/>
					<path d="M1506.3,209.3h11.3v8.7h0.5c3.6-6,11.9-10.8,19.3-10.8c10.1,0,16.6,4.6,19.8,12c4.5-7,12.2-12,21.9-12
						c15.4,0,22.4,10.9,22.4,26.4V272h-11.8v-36.6c0-13.1-5-17.4-14-17.4c-9.6,0-16,9.7-16,19.3V272H1548v-36.6
						c0-13.1-5-17.4-14-17.4c-9.6,0-16,9.7-16,19.3V272h-11.8V209.3z"/>
				</g>
				<g class="st3">
					
						<use xlink:href="#logo_x5F_dark"  width="416" height="136" y="-136" transform="matrix(1 0 0 -1 356 169)" style="overflow:visible;"/>
				</g>
			</g>
		</g>
		<g>
			<path class="st4" d="M245.7,272.1l-18.4,32H179c-4.3,0-8.3-2.3-10.4-6l-39-68c-2.1-3.7-2.1-8.2,0-11.9l14.9-25.9l18.3,31.9
				l27.6,48H245.7z"/>
			<path class="st5" d="M306.5,230l-39,68c-2.1,3.7-6.1,6-10.4,6h-29.8l18.4-32l27.6-48l-27.6-48h36.7l24.1,42.1
				C308.7,221.8,308.7,226.3,306.5,230z"/>
			<path class="st6" d="M282.4,176h-92l-27.6,48l-18.3-31.9l24.2-42.2c2.1-3.7,6.1-6,10.4-6h78.1c4.3,0,8.3,2.3,10.4,6L282.4,176z"
				/>
			<path class="st7" d="M245.7,176l27.6,48l-27.6,48h-55.3l-27.6-48l27.6-48H245.7"/>
			<circle class="st8" cx="218.1" cy="224.1" r="24"/>
			<path class="st9" d="M168.6,151c2.1-3.7,6.1-6,10.4-6h78.1c4.3,0,8.3,2.3,10.4,6l14.3,25h0.6l-14.9-26c-2.1-3.7-6.1-6-10.4-6H179
				c-4.3,0-8.3,2.3-10.4,6l-24.2,42.2l0.3,0.5L168.6,151z"/>
			<polyline class="st10" points="162.8,224.1 190.4,176 282.4,176 281.8,175 190.4,175 162.8,223.1 			"/>
			<path class="st9" d="M129.6,219.1l14.9-25.9l18.3,31.9l27.6,48h54.7l0.6-1h-55.3l-27.6-48l-18.3-31.9l-14.9,25.9
				c-1.2,2-1.7,4.2-1.6,6.5C128.1,222.7,128.6,220.8,129.6,219.1z"/>
			<g class="st11">
				<path class="st12" d="M227.9,303.1H179c-4.3,0-8.3-2.3-10.4-6l-39-68c-1-1.7-1.5-3.6-1.6-5.5c-0.1,2.2,0.4,4.5,1.6,6.5l39,68
					c2.1,3.7,6.1,6,10.4,6h48.2L227.9,303.1z"/>
			</g>
			<g class="st11">
				<g>
					<polygon class="st13" points="273.9,224.1 246.3,176 245.7,176 273.3,224.1 					"/>
				</g>
				<g>
					<path class="st13" d="M306.5,229l-39,68c-2.1,3.7-6.1,6-10.4,6h-29.2l-0.6,1h29.8c4.3,0,8.3-2.3,10.4-6l39-68
						c1.2-2,1.7-4.2,1.6-6.5C308,225.5,307.5,227.3,306.5,229z"/>
				</g>
			</g>
			<g class="st11">
				<g>
					<path class="st8" d="M282.4,177l24.1,42.1c1,1.7,1.5,3.6,1.6,5.5c0.1-2.2-0.4-4.5-1.6-6.5L282.4,176h-36.7l0.6,1"/>
				</g>
				<g>
					<polygon class="st8" points="245.7,273.1 273.9,224.1 273.3,224.1 245.7,272.1 227.3,304.1 227.9,304.1 					"/>
				</g>
			</g>
			
				<radialGradient id="SVGID_3_" cx="-896.1471" cy="7626.687" r="69.3191" gradientTransform="matrix(2.6667 0 0 -2.6667 2543.6465 20492.9102)" gradientUnits="userSpaceOnUse">
				<stop  offset="0" style="stop-color:#FFFFFF;stop-opacity:0.1"/>
				<stop  offset="1" style="stop-color:#FFFFFF;stop-opacity:0"/>
			</radialGradient>
			<path class="st14" d="M306.5,218.1L282.4,176l-14.9-26c-2.1-3.7-6.1-6-10.4-6H179c-4.3,0-8.3,2.3-10.4,6l-39,68
				c-2.1,3.7-2.1,8.2,0,11.9l39,68c2.1,3.7,6.1,6,10.4,6h78.1c4.3,0,8.3-2.3,10.4-6l39-68C308.7,226.3,308.7,221.8,306.5,218.1z"/>
			<rect x="122" y="128" class="st0" width="192.1" height="192.1"/>
		</g>
	</g>
	<rect class="st15" width="1730" height="448"/>
</g>
</svg>
